<svg
      xmlns="http://www.w3.org/2000/svg"
      viewBox="0 20 900 100"
      preserveAspectRatio="none">
      <path d="M0 68L21.5 68.5C43 69 86 70 128.8 69.7C171.7 69.3 214.3 67.7 257.2 74.2C300 80.7 343 95.3 385.8 97.3C428.7 99.3 471.3 88.7 514.2 81.8C557 75 600 72 642.8 70.7C685.7 69.3 728.3 69.7 771.2 75.7C814 81.7 857 93.3 878.5 99.2L900 105L900 0L878.5 0C857 0 814 0 771.2 0C728.3 0 685.7 0 642.8 0C600 0 557 0 514.2 0C471.3 0 428.7 0 385.8 0C343 0 300 0 257.2 0C214.3 0 171.7 0 128.8 0C86 0 43 0 21.5 0L0 0Z" fill="#06445b" />
      <path d="M0 50L21.5 55C43 60 86 70 128.8 74.8C171.7 79.7 214.3 79.3 257.2 78.2C300 77 343 75 385.8 72.3C428.7 69.7 471.3 66.3 514.2 67.8C557 69.3 600 75.7 642.8 74.5C685.7 73.3 728.3 64.7 771.2 61.7C814 58.7 857 61.3 878.5 62.7L900 64L900 0L878.5 0C857 0 814 0 771.2 0C728.3 0 685.7 0 642.8 0C600 0 557 0 514.2 0C471.3 0 428.7 0 385.8 0C343 0 300 0 257.2 0C214.3 0 171.7 0 128.8 0C86 0 43 0 21.5 0L0 0Z" fill="#07222d" />
      <path d="M0 49L21.5 47.8C43 46.7 86 44.3 128.8 42.2C171.7 40 214.3 38 257.2 37.7C300 37.3 343 38.7 385.8 39.7C428.7 40.7 471.3 41.3 514.2 45C557 48.7 600 55.3 642.8 55.5C685.7 55.7 728.3 49.3 771.2 48.7C814 48 857 53 878.5 55.5L900 58L900 0L878.5 0C857 0 814 0 771.2 0C728.3 0 685.7 0 642.8 0C600 0 557 0 514.2 0C471.3 0 428.7 0 385.8 0C343 0 300 0 257.2 0C214.3 0 171.7 0 128.8 0C86 0 43 0 21.5 0L0 0Z" fill="#001117" />
      <path d="M0 36L21.5 33.3C43 30.7 86 25.3 128.8 25.7C171.7 26 214.3 32 257.2 31.5C300 31 343 24 385.8 21C428.7 18 471.3 19 514.2 18.5C557 18 600 16 642.8 15.8C685.7 15.7 728.3 17.3 771.2 18C814 18.7 857 18.3 878.5 18.2L900 18L900 0L878.5 0C857 0 814 0 771.2 0C728.3 0 685.7 0 642.8 0C600 0 557 0 514.2 0C471.3 0 428.7 0 385.8 0C343 0 300 0 257.2 0C214.3 0 171.7 0 128.8 0C86 0 43 0 21.5 0L0 0Z" fill="#001219" />
    </svg>