<svg id="visual" viewBox="0 350 900 215" xmlns="http://www.w3.org/2000/svg" preserveAspectRatio="none">
<rect x="0" y="0" width="900" height="600" fill="#001219"></rect>
<path d="M0 390L21.5 391.7C43 393.3 86 396.7 128.8 391.8C171.7 387 214.3 374 257.2 379C300 384 343 407 385.8 413.3C428.7 419.7 471.3 409.3 514.2 402.3C557 395.3 600 391.7 642.8 387C685.7 382.3 728.3 376.7 771.2 385.2C814 393.7 857 416.3 878.5 427.7L900 439L900 601L878.5 601C857 601 814 601 771.2 601C728.3 601 685.7 601 642.8 601C600 601 557 601 514.2 601C471.3 601 428.7 601 385.8 601C343 601 300 601 257.2 601C214.3 601 171.7 601 128.8 601C86 601 43 601 21.5 601L0 601Z" fill="#005f73"></path>
<path d="M0 409L21.5 412.7C43 416.3 86 423.7 128.8 424.5C171.7 425.3 214.3 419.7 257.2 419.7C300 419.7 343 425.3 385.8 436.2C428.7 447 471.3 463 514.2 462C557 461 600 443 642.8 428.8C685.7 414.7 728.3 404.3 771.2 401.7C814 399 857 404 878.5 406.5L900 409L900 601L878.5 601C857 601 814 601 771.2 601C728.3 601 685.7 601 642.8 601C600 601 557 601 514.2 601C471.3 601 428.7 601 385.8 601C343 601 300 601 257.2 601C214.3 601 171.7 601 128.8 601C86 601 43 601 21.5 601L0 601Z" fill="#4f8292"></path>
<path d="M0 459L21.5 455.8C43 452.7 86 446.3 128.8 447.3C171.7 448.3 214.3 456.7 257.2 461.7C300 466.7 343 468.3 385.8 473.3C428.7 478.3 471.3 486.7 514.2 491C557 495.3 600 495.7 642.8 491.3C685.7 487 728.3 478 771.2 470.5C814 463 857 457 878.5 454L900 451L900 601L878.5 601C857 601 814 601 771.2 601C728.3 601 685.7 601 642.8 601C600 601 557 601 514.2 601C471.3 601 428.7 601 385.8 601C343 601 300 601 257.2 601C214.3 601 171.7 601 128.8 601C86 601 43 601 21.5 601L0 601Z" fill="#84a6b2"></path>
<path d="M0 536L21.5 532.3C43 528.7 86 521.3 128.8 516.8C171.7 512.3 214.3 510.7 257.2 507.2C300 503.7 343 498.3 385.8 500C428.7 501.7 471.3 510.3 514.2 514.2C557 518 600 517 642.8 512.5C685.7 508 728.3 500 771.2 495.3C814 490.7 857 489.3 878.5 488.7L900 488L900 601L878.5 601C857 601 814 601 771.2 601C728.3 601 685.7 601 642.8 601C600 601 557 601 514.2 601C471.3 601 428.7 601 385.8 601C343 601 300 601 257.2 601C214.3 601 171.7 601 128.8 601C86 601 43 601 21.5 601L0 601Z" fill="#b8cbd3"></path>
<path d="M0 558L21.5 552.8C43 547.7 86 537.3 128.8 537.3C171.7 537.3 214.3 547.7 257.2 551C300 554.3 343 550.7 385.8 548C428.7 545.3 471.3 543.7 514.2 544.3C557 545 600 548 642.8 553C685.7 558 728.3 565 771.2 561.2C814 557.3 857 542.7 878.5 535.3L900 528L900 601L878.5 601C857 601 814 601 771.2 601C728.3 601 685.7 601 642.8 601C600 601 557 601 514.2 601C471.3 601 428.7 601 385.8 601C343 601 300 601 257.2 601C214.3 601 171.7 601 128.8 601C86 601 43 601 21.5 601L0 601Z" fill="#edf2f4"></path>
</svg>