<svg id="visual" viewBox="0 0 900 120" xmlns="http://www.w3.org/2000/svg" preserveAspectRatio="none">
<rect x="0" y="0" width="900" height="150" fill="#001219"></rect>
<path d="M0 104L16.7 101.7C33.3 99.3 66.7 94.7 100 93.2C133.3 91.7 166.7 93.3 200 96.8C233.3 100.3 266.7 105.7 300 102C333.3 98.3 366.7 85.7 400 79C433.3 72.3 466.7 71.7 500 69.7C533.3 67.7 566.7 64.3 600 66.7C633.3 69 666.7 77 700 78.7C733.3 80.3 766.7 75.7 800 73.7C833.3 71.7 866.7 72.3 883.3 72.7L900 73L900 0L883.3 0C866.7 0 833.3 0 800 0C766.7 0 733.3 0 700 0C666.7 0 633.3 0 600 0C566.7 0 533.3 0 500 0C466.7 0 433.3 0 400 0C366.7 0 333.3 0 300 0C266.7 0 233.3 0 200 0C166.7 0 133.3 0 100 0C66.7 0 33.3 0 16.7 0L0 0Z" fill="#005f73"></path>
<path d="M0 43L16.7 49.7C33.3 56.3 66.7 69.7 100 70C133.3 70.3 166.7 57.7 200 57C233.3 56.3 266.7 67.7 300 75.5C333.3 83.3 366.7 87.7 400 81.7C433.3 75.7 466.7 59.3 500 56C533.3 52.7 566.7 62.3 600 70.7C633.3 79 666.7 86 700 81.3C733.3 76.7 766.7 60.3 800 51.7C833.3 43 866.7 42 883.3 41.5L900 41L900 0L883.3 0C866.7 0 833.3 0 800 0C766.7 0 733.3 0 700 0C666.7 0 633.3 0 600 0C566.7 0 533.3 0 500 0C466.7 0 433.3 0 400 0C366.7 0 333.3 0 300 0C266.7 0 233.3 0 200 0C166.7 0 133.3 0 100 0C66.7 0 33.3 0 16.7 0L0 0Z" fill="#84a6b2"></path>
<path d="M0 42L16.7 41.8C33.3 41.7 66.7 41.3 100 40.3C133.3 39.3 166.7 37.7 200 40.3C233.3 43 266.7 50 300 49.7C333.3 49.3 366.7 41.7 400 42.3C433.3 43 466.7 52 500 55.2C533.3 58.3 566.7 55.7 600 55.5C633.3 55.3 666.7 57.7 700 54.2C733.3 50.7 766.7 41.3 800 37C833.3 32.7 866.7 33.3 883.3 33.7L900 34L900 0L883.3 0C866.7 0 833.3 0 800 0C766.7 0 733.3 0 700 0C666.7 0 633.3 0 600 0C566.7 0 533.3 0 500 0C466.7 0 433.3 0 400 0C366.7 0 333.3 0 300 0C266.7 0 233.3 0 200 0C166.7 0 133.3 0 100 0C66.7 0 33.3 0 16.7 0L0 0Z" fill="#edf2f4"></path>
</svg>