<svg
    xmlns="http://www.w3.org/2000/svg"
    xmlns:xlink="http://www.w3.org/1999/xlink"
    viewBox="0 320 900 100"
    preserveAspectRatio="none">
    <path d="M0 360L21.5 360C43 360 86 360 128.8 356.8C171.7 353.7 214.3 347.3 257.2 344.5C300 341.7 343 342.3 385.8 347C428.7 351.7 471.3 360.3 514.2 361.3C557 362.3 600 355.7 642.8 350.7C685.7 345.7 728.3 342.3 771.2 343.5C814 344.7 857 350.3 878.5 353.2L900 356L900 451L878.5 451C857 451 814 451 771.2 451C728.3 451 685.7 451 642.8 451C600 451 557 451 514.2 451C471.3 451 428.7 451 385.8 451C343 451 300 451 257.2 451C214.3 451 171.7 451 128.8 451C86 451 43 451 21.5 451L0 451Z" fill="#06445b" />
    <path d="M0 395L21.5 392.2C43 389.3 86 383.7 128.8 380.3C171.7 377 214.3 376 257.2 380C300 384 343 393 385.8 392.3C428.7 391.7 471.3 381.3 514.2 375.3C557 369.3 600 367.7 642.8 370.3C685.7 373 728.3 380 771.2 382C814 384 857 381 878.5 379.5L900 378L900 451L878.5 451C857 451 814 451 771.2 451C728.3 451 685.7 451 642.8 451C600 451 557 451 514.2 451C471.3 451 428.7 451 385.8 451C343 451 300 451 257.2 451C214.3 451 171.7 451 128.8 451C86 451 43 451 21.5 451L0 451Z" fill="#07222d" />
    <path d="M0 390L21.5 393.7C43 397.3 86 404.7 128.8 406.3C171.7 408 214.3 404 257.2 399.8C300 395.7 343 391.3 385.8 389.7C428.7 388 471.3 389 514.2 391C557 393 600 396 642.8 395.8C685.7 395.7 728.3 392.3 771.2 394.5C814 396.7 857 404.3 878.5 408.2L900 412L900 451L878.5 451C857 451 814 451 771.2 451C728.3 451 685.7 451 642.8 451C600 451 557 451 514.2 451C471.3 451 428.7 451 385.8 451C343 451 300 451 257.2 451C214.3 451 171.7 451 128.8 451C86 451 43 451 21.5 451L0 451Z" fill="#001117" />
    <path d="M0 429L21.5 426C43 423 86 417 128.8 417.5C171.7 418 214.3 425 257.2 429C300 433 343 434 385.8 434C428.7 434 471.3 433 514.2 429.8C557 426.7 600 421.3 642.8 421C685.7 420.7 728.3 425.3 771.2 424.7C814 424 857 418 878.5 415L900 412L900 451L878.5 451C857 451 814 451 771.2 451C728.3 451 685.7 451 642.8 451C600 451 557 451 514.2 451C471.3 451 428.7 451 385.8 451C343 451 300 451 257.2 451C214.3 451 171.7 451 128.8 451C86 451 43 451 21.5 451L0 451Z" fill="#001219" />
</svg>