<svg xmlns="http://www.w3.org/2000/svg" xmlns:xlink="http://www.w3.org/1999/xlink" xmlns:lucid="lucid" width="600" height="490.36"><g transform="translate(-160 -620)" lucid:page-tab-id="fcmPh408cd7X"><path d="M263.8 645.8a7.8 7.8 0 0 1 7.53-5.8H734a4.6 4.6 0 0 1 4.45 5.8L656.2 954.2a7.8 7.8 0 0 1-7.53 5.8H186a4.6 4.6 0 0 1-4.45-5.8z" stroke="#979ea8" stroke-width="3" fill-opacity="0"/><path d="M300.62 705.54a6 6 0 0 1 6-6h73.84a6 6 0 0 0 6-6v-26.92a1 1 0 0 1 1.95-.32l30.27 88.03a17.46 17.46 0 0 1 0 11.34L388.4 853.7a1 1 0 0 1-1.94-.32v-26.92a6 6 0 0 0-6-6h-73.84a6 6 0 0 1-6-6z" stroke="#000" stroke-opacity="0" stroke-width="3" fill="url(#a)" transform="matrix(6.123233995736766e-17,-1,1,6.123233995736766e-17,-399.3772921294419,1120.6227078705583)"/><path d="M235.8 785.8a7.8 7.8 0 0 1 7.53-5.8H494a4.6 4.6 0 0 1 4.45 5.8L464.2 914.2a7.8 7.8 0 0 1-7.53 5.8H206a4.6 4.6 0 0 1-4.45-5.8z" stroke="#ff8f8f" stroke-width="3" fill="#ffd9d9"/><path d="M220 850.7a10 10 0 0 1 3.6-7.7 12.94 12.94 0 0 1 8.3-3H354a6 6 0 0 1 6 6v42.1a12.94 12.94 0 0 1-3 8.3 10 10 0 0 1-7.7 3.6H226a6 6 0 0 1-6-6z" stroke="#ff8f8f" stroke-width="3" fill="#ff8f8f"/><path d="M224.7 846a1.7 1.7 0 0 1-1.1-3 12.94 12.94 0 0 1 8.3-3h123.86a1.76 1.76 0 0 1 1.24 3 10.24 10.24 0 0 1-7.24 3z" stroke="#ff8f8f" stroke-width="3" fill="#e68181"/><path d="M354 850.24a10.24 10.24 0 0 1 3-7.24 1.76 1.76 0 0 1 3 1.24v43.87a12.94 12.94 0 0 1-3 8.3 1.7 1.7 0 0 1-3-1.1z" stroke="#ff8f8f" stroke-width="3" fill="#cc7272"/><use xlink:href="#b" transform="matrix(1,0,0,1,228,854) translate(0 17.77777777777778)"/><path d="M261.25 770.8a10 10 0 0 1 3.6-7.68 12.94 12.94 0 0 1 8.28-3h162.12a6 6 0 0 1 6 6v42.12a12.94 12.94 0 0 1-3 8.28 10 10 0 0 1-7.7 3.6h-163.3a6 6 0 0 1-6-6z" stroke="#ff8f8f" stroke-width="3" fill="#ff8f8f"/><path d="M265.93 766.12a1.7 1.7 0 0 1-1.08-3 12.94 12.94 0 0 1 8.28-3H437a1.76 1.76 0 0 1 1.25 3 10.24 10.24 0 0 1-7.25 3z" stroke="#ff8f8f" stroke-width="3" fill="#e68181"/><path d="M435.25 770.37a10.24 10.24 0 0 1 3-7.25 1.76 1.76 0 0 1 3 1.25v43.87a12.94 12.94 0 0 1-3 8.28 1.7 1.7 0 0 1-3-1.08z" stroke="#ff8f8f" stroke-width="3" fill="#cc7272"/><use xlink:href="#c" transform="matrix(1,0,0,1,269.2454918610568,774.1226147639836) translate(0 17.77777777777778)"/><path d="M380 850.7a10 10 0 0 1 3.6-7.7 12.94 12.94 0 0 1 8.3-3H434a6 6 0 0 1 6 6v42.1a12.94 12.94 0 0 1-3 8.3 10 10 0 0 1-7.7 3.6H386a6 6 0 0 1-6-6z" stroke="#ff8f8f" stroke-width="3" fill="#ff8f8f"/><path d="M384.7 846a1.7 1.7 0 0 1-1.1-3 12.94 12.94 0 0 1 8.3-3h43.86a1.76 1.76 0 0 1 1.24 3 10.24 10.24 0 0 1-7.24 3z" stroke="#ff8f8f" stroke-width="3" fill="#e68181"/><path d="M434 850.24a10.24 10.24 0 0 1 3-7.24 1.76 1.76 0 0 1 3 1.24v43.87a12.94 12.94 0 0 1-3 8.3 1.7 1.7 0 0 1-3-1.1z" stroke="#ff8f8f" stroke-width="3" fill="#cc7272"/><use xlink:href="#d" transform="matrix(1,0,0,1,388,853.9999999999999) translate(0 17.77777777777778)"/><path d="M274.45 665.8A7.8 7.8 0 0 1 282 660h252a4.6 4.6 0 0 1 4.45 5.8l-12.9 48.4A7.8 7.8 0 0 1 518 720H266a4.6 4.6 0 0 1-4.45-5.8z" fill-opacity="0"/><path d="M298.23 660.06h11.5m11.5 0h11.5m11.5 0h11.5m11.5-.02h11.5m11.5 0h11.5m11.5 0h11.5m11.5 0l11.5-.02m11.5 0h11.5m11.52 0h11.5m11.5 0l11.5-.02m11.5 0H534l.84.08.8.23.77.38.68.5.58.62.45.7.32.8.16.82.02.85-1.64 6.15m-3.26 12.3l-3.26 12.32m-3.26 12.3l-1.63 6.16-.33.97-.45.92-.57.84-.67.77-.77.68-.85.57-.9.45-.98.33-1 .2h-5.75m-11.5 0h-11.5m-11.5 0l-11.5.02m-11.5 0h-11.5m-11.5 0h-11.5m-11.5 0h-11.5m-11.5.02h-11.5m-11.5 0h-11.5m-11.5 0h-11.5m-11.52.02h-11.5m-11.5 0h-11.5m-11.5 0H266l-.84-.08-.8-.23-.77-.38-.68-.5-.58-.62-.45-.7-.32-.8-.16-.82-.02-.85 1.64-6.15m3.26-12.3l3.26-12.32m3.26-12.3l1.63-6.16.33-.97.45-.92.57-.84.67-.77.77-.68.85-.57.9-.45.98-.33 1-.2h5.75" stroke="#4c535d" stroke-width="3" fill="none"/><path d="M280 650.7a10 10 0 0 1 3.6-7.7 12.94 12.94 0 0 1 8.3-3H334a6 6 0 0 1 6 6v42.1a12.94 12.94 0 0 1-3 8.3 10 10 0 0 1-7.7 3.6H286a6 6 0 0 1-6-6z" stroke="#4c535d" stroke-width="3" fill="#4c535d"/><path d="M284.7 646a1.7 1.7 0 0 1-1.1-3 12.94 12.94 0 0 1 8.3-3h43.86a1.76 1.76 0 0 1 1.24 3 10.24 10.24 0 0 1-7.24 3z" stroke="#4c535d" stroke-width="3" fill="#444b54"/><path d="M334 650.24a10.24 10.24 0 0 1 3-7.24 1.76 1.76 0 0 1 3 1.24v43.87a12.94 12.94 0 0 1-3 8.3 1.7 1.7 0 0 1-3-1.1z" stroke="#4c535d" stroke-width="3" fill="#3d424a"/><use xlink:href="#e" transform="matrix(1,0,0,1,288,654.0000000000001) translate(0 17.77777777777778)"/><path d="M360 650.7a10 10 0 0 1 3.6-7.7 12.94 12.94 0 0 1 8.3-3H414a6 6 0 0 1 6 6v42.1a12.94 12.94 0 0 1-3 8.3 10 10 0 0 1-7.7 3.6H366a6 6 0 0 1-6-6z" stroke="#4c535d" stroke-width="3" fill="#4c535d"/><path d="M364.7 646a1.7 1.7 0 0 1-1.1-3 12.94 12.94 0 0 1 8.3-3h43.86a1.76 1.76 0 0 1 1.24 3 10.24 10.24 0 0 1-7.24 3z" stroke="#4c535d" stroke-width="3" fill="#444b54"/><path d="M414 650.24a10.24 10.24 0 0 1 3-7.24 1.76 1.76 0 0 1 3 1.24v43.87a12.94 12.94 0 0 1-3 8.3 1.7 1.7 0 0 1-3-1.1z" stroke="#4c535d" stroke-width="3" fill="#3d424a"/><use xlink:href="#f" transform="matrix(1,0,0,1,368,654.0000000000001) translate(0 17.77777777777778)"/><path d="M440 650.7a10 10 0 0 1 3.6-7.7 12.94 12.94 0 0 1 8.3-3H494a6 6 0 0 1 6 6v42.1a12.94 12.94 0 0 1-3 8.3 10 10 0 0 1-7.7 3.6H446a6 6 0 0 1-6-6z" stroke="#4c535d" stroke-width="3" fill="#4c535d"/><path d="M444.7 646a1.7 1.7 0 0 1-1.1-3 12.94 12.94 0 0 1 8.3-3h43.86a1.76 1.76 0 0 1 1.24 3 10.24 10.24 0 0 1-7.24 3z" stroke="#4c535d" stroke-width="3" fill="#444b54"/><path d="M494 650.24a10.24 10.24 0 0 1 3-7.24 1.76 1.76 0 0 1 3 1.24v43.87a12.94 12.94 0 0 1-3 8.3 1.7 1.7 0 0 1-3-1.1z" stroke="#4c535d" stroke-width="3" fill="#3d424a"/><use xlink:href="#g" transform="matrix(1,0,0,1,448,654) translate(0 17.77777777777778)"/><path d="M520 850.7a10 10 0 0 1 3.6-7.7 12.94 12.94 0 0 1 8.3-3H634a6 6 0 0 1 6 6v42.1a12.94 12.94 0 0 1-3 8.3 10 10 0 0 1-7.7 3.6H526a6 6 0 0 1-6-6z" stroke="#cfe4ff" stroke-width="3" fill="#6db1ff"/><path d="M524.7 846a1.7 1.7 0 0 1-1.1-3 12.94 12.94 0 0 1 8.3-3h103.86a1.76 1.76 0 0 1 1.24 3 10.24 10.24 0 0 1-7.24 3z" stroke="#cfe4ff" stroke-width="3" fill="#629fe6"/><path d="M634 850.24a10.24 10.24 0 0 1 3-7.24 1.76 1.76 0 0 1 3 1.24v43.87a12.94 12.94 0 0 1-3 8.3 1.7 1.7 0 0 1-3-1.1z" stroke="#cfe4ff" stroke-width="3" fill="#578ecc"/><use xlink:href="#h" transform="matrix(1,0,0,1,528,854) translate(0 17.77777777777778)"/><path d="M580 650.7a10 10 0 0 1 3.6-7.7 12.94 12.94 0 0 1 8.3-3H694a6 6 0 0 1 6 6v42.1a12.94 12.94 0 0 1-3 8.3 10 10 0 0 1-7.7 3.6H586a6 6 0 0 1-6-6z" stroke="#fc9432" stroke-width="3" fill="#ffdda6"/><path d="M584.7 646a1.7 1.7 0 0 1-1.1-3 12.94 12.94 0 0 1 8.3-3h103.86a1.76 1.76 0 0 1 1.24 3 10.24 10.24 0 0 1-7.24 3z" stroke="#fc9432" stroke-width="3" fill="#e6c795"/><path d="M694 650.24a10.24 10.24 0 0 1 3-7.24 1.76 1.76 0 0 1 3 1.24v43.87a12.94 12.94 0 0 1-3 8.3 1.7 1.7 0 0 1-3-1.1z" stroke="#fc9432" stroke-width="3" fill="#ccb185"/><use xlink:href="#i" transform="matrix(1,0,0,1,588,654.0000000000002) translate(0 17.77777777777778)"/><path d="M540 746a6 6 0 0 1 6-6h108a6 6 0 0 1 6 6v54c-20.04-10.02-32.52-10.02-40.08-10.02-12 0-27.96 10.02-39.96 10.02-7.44 0-20.04 0-39.96-10.02z" stroke="#fc9432" stroke-width="3" fill="#ffdda6"/><use xlink:href="#j" transform="matrix(1,0,0,1,545,745) translate(24.783950617283956 25.46527777777778)"/><path d="M640 702.48V714a6 6 0 0 1-6 6h-28a6 6 0 0 0-6 6v11.54" stroke="#ff8f8f" stroke-width="2" fill="none"/><path d="M641 702.5h-2v-1.02h2zM601 738.54h-2v-1.03h2z" stroke="#ff8f8f" stroke-width=".05" fill="#ff8f8f"/><path d="M517.53 870H442.5" stroke="#6db1ff" stroke-width="2" fill="none"/><path d="M518.53 871h-1.02v-2h1.03zM442.5 871h-1.02v-2h1.03z" stroke="#6db1ff" stroke-width=".05" fill="#6db1ff"/><path d="M334.62 912.54a6 6 0 0 1 6-6h106.76a6 6 0 0 1 6 6v17.7a6 6 0 0 1-6 6H340.62a6 6 0 0 1-6-6z" stroke="#ff8f8f" stroke-width="3" fill="#ffd9d9"/><use xlink:href="#k" transform="matrix(1,0,0,1,339.62274593052837,911.5440519026829) translate(18.080246913580254 15.472222222222221)"/><path d="M526.76 950.36a6 6 0 0 1 6-6H639.5a6 6 0 0 1 6 6v17.68a6 6 0 0 1-6 6H532.77a6 6 0 0 1-6-6z" stroke="#979ea8" stroke-width="3" fill="#f2f3f5"/><use xlink:href="#l" transform="matrix(1,0,0,1,531.7560792638616,949.3556864826321) translate(34.82098765432099 15.472222222222221)"/><path d="M413.33 714.34a6 6 0 0 1 6-6h85.5a6 6 0 0 1 6 6V726a6 6 0 0 1-6 6h-85.5a6 6 0 0 1-6-6z" stroke="#4c535d" stroke-width="3" fill="#f2f3f5"/><use xlink:href="#m" transform="matrix(1,0,0,1,418.33333333333337,713.3364709809705) translate(7.456790123456791 14.222222222222221)"/><path d="M290 837.52v-2.26a6 6 0 0 1 6-6h6.52a6 6 0 0 0 6-6V821" stroke="#ff8f8f" stroke-width="2" fill="none"/><path d="M291 838.52h-2v-1.03h2zM309.52 821.02h-2V820h2z" stroke="#ff8f8f" stroke-width=".05" fill="#ff8f8f"/><path d="M218.55 1063.25c-10.25 0-18.55-8.1-18.55-18.07 0-8 5.02-14.72 12.82-17.2-.46-23.46 30.46-27.98 42.82-18.94 6.18-13.56 37.1-9.04 37.1 4.5 18.54-4.5 37.1 13.57 24.72 36.16 12.37 18.07 0 40.66-24.72 31.62-6.2 11.75-30.92 11.75-37.1 0-12.36 9.04-37.1 4.52-37.1-18.07z" stroke="#ff80df" stroke-width="3" fill="#ff80df"/><use xlink:href="#n" transform="matrix(1,0,0,1,205,1005) translate(7.4803086419753 45.62152777777778)"/><path d="M261.4 1000.6V902.5" stroke="#ff80df" stroke-width="2" fill="none"/><path d="M262.4 1001.17l-1.5.63-.5.3v-1.53h2zM262.4 902.52h-2v-1.03h2z" stroke="#ff80df" stroke-width=".05" fill="#ff80df"/><defs><linearGradient gradientUnits="userSpaceOnUse" id="a" x1="300.62" y1="859.38" x2="420.62" y2="859.38"><stop offset="0%" stop-color="#fff"/><stop offset="50.64%" stop-color="#ffd2d2"/><stop offset="100%" stop-color="#ff8e8e"/></linearGradient><path fill="#333" d="M30-248c87 1 191-15 191 75 0 78-77 80-158 76V0H30v-248zm33 125c57 0 124 11 124-50 0-59-68-47-124-48v98" id="o"/><path fill="#333" d="M114-163C36-179 61-72 57 0H25l-1-190h30c1 12-1 29 2 39 6-27 23-49 58-41v29" id="p"/><path fill="#333" d="M100-194c62-1 85 37 85 99 1 63-27 99-86 99S16-35 15-95c0-66 28-99 85-99zM99-20c44 1 53-31 53-75 0-43-8-75-51-75s-53 32-53 75 10 74 51 75" id="q"/><path fill="#333" d="M141 0L90-78 38 0H4l68-98-65-92h35l48 74 47-74h35l-64 92 68 98h-35" id="r"/><path fill="#333" d="M24-231v-30h32v30H24zM24 0v-190h32V0H24" id="s"/><path fill="#333" d="M100-194c63 0 86 42 84 106H49c0 40 14 67 53 68 26 1 43-12 49-29l28 8c-11 28-37 45-77 45C44 4 14-33 15-96c1-61 26-98 85-98zm52 81c6-60-76-77-97-28-3 7-6 17-6 28h103" id="t"/><path fill="#333" d="M135-143c-3-34-86-38-87 0 15 53 115 12 119 90S17 21 10-45l28-5c4 36 97 45 98 0-10-56-113-15-118-90-4-57 82-63 122-42 12 7 21 19 24 35" id="u"/><g id="b"><use transform="matrix(0.06172839506172839,0,0,0.06172839506172839,0,0)" xlink:href="#o"/><use transform="matrix(0.06172839506172839,0,0,0.06172839506172839,14.814814814814813,0)" xlink:href="#p"/><use transform="matrix(0.06172839506172839,0,0,0.06172839506172839,22.160493827160494,0)" xlink:href="#q"/><use transform="matrix(0.06172839506172839,0,0,0.06172839506172839,34.50617283950617,0)" xlink:href="#r"/><use transform="matrix(0.06172839506172839,0,0,0.06172839506172839,45.61728395061728,0)" xlink:href="#s"/><use transform="matrix(0.06172839506172839,0,0,0.06172839506172839,50.49382716049382,0)" xlink:href="#t"/><use transform="matrix(0.06172839506172839,0,0,0.06172839506172839,62.8395061728395,0)" xlink:href="#u"/></g><path fill="#333" d="M240 0l2-218c-23 76-54 145-80 218h-23L58-218 59 0H30v-248h44l77 211c21-75 51-140 76-211h43V0h-30" id="v"/><path fill="#333" d="M85-194c31 0 48 13 60 33l-1-100h32l1 261h-30c-2-10 0-23-3-31C134-8 116 4 85 4 32 4 16-35 15-94c0-66 23-100 70-100zm9 24c-40 0-46 34-46 75 0 40 6 74 45 74 42 0 51-32 51-76 0-42-9-74-50-73" id="w"/><path fill="#333" d="M24 0v-261h32V0H24" id="x"/><path fill="#333" d="M206 0h-36l-40-164L89 0H53L-1-190h32L70-26l43-164h34l41 164 42-164h31" id="y"/><path fill="#333" d="M141-36C126-15 110 5 73 4 37 3 15-17 15-53c-1-64 63-63 125-63 3-35-9-54-41-54-24 1-41 7-42 31l-33-3c5-37 33-52 76-52 45 0 72 20 72 64v82c-1 20 7 32 28 27v20c-31 9-61-2-59-35zM48-53c0 20 12 33 32 33 41-3 63-29 60-74-43 2-92-5-92 41" id="z"/><g id="c"><use transform="matrix(0.06172839506172839,0,0,0.06172839506172839,0,0)" xlink:href="#v"/><use transform="matrix(0.06172839506172839,0,0,0.06172839506172839,18.456790123456788,0)" xlink:href="#s"/><use transform="matrix(0.06172839506172839,0,0,0.06172839506172839,23.33333333333333,0)" xlink:href="#w"/><use transform="matrix(0.06172839506172839,0,0,0.06172839506172839,35.679012345679006,0)" xlink:href="#w"/><use transform="matrix(0.06172839506172839,0,0,0.06172839506172839,48.02469135802468,0)" xlink:href="#x"/><use transform="matrix(0.06172839506172839,0,0,0.06172839506172839,52.90123456790123,0)" xlink:href="#t"/><use transform="matrix(0.06172839506172839,0,0,0.06172839506172839,65.24691358024691,0)" xlink:href="#y"/><use transform="matrix(0.06172839506172839,0,0,0.06172839506172839,81.23456790123457,0)" xlink:href="#z"/><use transform="matrix(0.06172839506172839,0,0,0.06172839506172839,93.58024691358025,0)" xlink:href="#p"/><use transform="matrix(0.06172839506172839,0,0,0.06172839506172839,100.92592592592594,0)" xlink:href="#t"/></g><path fill="#333" d="M205 0l-28-72H64L36 0H1l101-248h38L239 0h-34zm-38-99l-47-123c-12 45-31 82-46 123h93" id="A"/><path fill="#333" d="M33 0v-248h34V0H33" id="B"/><g id="d"><use transform="matrix(0.06172839506172839,0,0,0.06172839506172839,0,0)" xlink:href="#A"/><use transform="matrix(0.06172839506172839,0,0,0.06172839506172839,14.814814814814813,0)" xlink:href="#o"/><use transform="matrix(0.06172839506172839,0,0,0.06172839506172839,29.629629629629626,0)" xlink:href="#B"/></g><path fill="#fff" d="M185-189c-5-48-123-54-124 2 14 75 158 14 163 119 3 78-121 87-175 55-17-10-28-26-33-46l33-7c5 56 141 63 141-1 0-78-155-14-162-118-5-82 145-84 179-34 5 7 8 16 11 25" id="C"/><path fill="#fff" d="M27 0v-27h64v-190l-56 39v-29l58-41h29v221h61V0H27" id="D"/><g id="e"><use transform="matrix(0.06172839506172839,0,0,0.06172839506172839,0,0)" xlink:href="#C"/><use transform="matrix(0.06172839506172839,0,0,0.06172839506172839,14.814814814814813,0)" xlink:href="#D"/></g><path fill="#fff" d="M101-251c82-7 93 87 43 132L82-64C71-53 59-42 53-27h129V0H18c2-99 128-94 128-182 0-28-16-43-45-43s-46 15-49 41l-32-3c6-41 34-60 81-64" id="E"/><g id="f"><use transform="matrix(0.06172839506172839,0,0,0.06172839506172839,0,0)" xlink:href="#C"/><use transform="matrix(0.06172839506172839,0,0,0.06172839506172839,14.814814814814813,0)" xlink:href="#E"/></g><path fill="#fff" d="M87 75C49 33 22-17 22-94c0-76 28-126 65-167h31c-38 41-64 92-64 168S80 34 118 75H87" id="F"/><path fill="#fff" d="M190 0L58-211 59 0H30v-248h39L202-35l-2-213h31V0h-41" id="G"/><path fill="#fff" d="M33-261c38 41 65 92 65 168S71 34 33 75H2C39 34 66-17 66-93S39-220 2-261h31" id="H"/><g id="g"><use transform="matrix(0.06172839506172839,0,0,0.06172839506172839,0,0)" xlink:href="#C"/><use transform="matrix(0.06172839506172839,0,0,0.06172839506172839,14.814814814814813,0)" xlink:href="#F"/><use transform="matrix(0.06172839506172839,0,0,0.06172839506172839,22.160493827160494,0)" xlink:href="#G"/><use transform="matrix(0.06172839506172839,0,0,0.06172839506172839,38.148148148148145,0)" xlink:href="#H"/></g><path fill="#333" d="M266 0h-40l-56-210L115 0H75L2-248h35L96-30l15-64 43-154h32l59 218 59-218h35" id="I"/><path fill="#333" d="M115-194c53 0 69 39 70 98 0 66-23 100-70 100C84 3 66-7 56-30L54 0H23l1-261h32v101c10-23 28-34 59-34zm-8 174c40 0 45-34 45-75 0-40-5-75-45-74-42 0-51 32-51 76 0 43 10 73 51 73" id="J"/><path fill="#333" d="M115-194c55 1 70 41 70 98S169 2 115 4C84 4 66-9 55-30l1 105H24l-1-265h31l2 30c10-21 28-34 59-34zm-8 174c40 0 45-34 45-75s-6-73-45-74c-42 0-51 32-51 76 0 43 10 73 51 73" id="K"/><g id="h"><use transform="matrix(0.06172839506172839,0,0,0.06172839506172839,0,0)" xlink:href="#I"/><use transform="matrix(0.06172839506172839,0,0,0.06172839506172839,20.493827160493826,0)" xlink:href="#t"/><use transform="matrix(0.06172839506172839,0,0,0.06172839506172839,32.839506172839506,0)" xlink:href="#J"/><use transform="matrix(0.06172839506172839,0,0,0.06172839506172839,45.18518518518518,0)" xlink:href="#z"/><use transform="matrix(0.06172839506172839,0,0,0.06172839506172839,57.53086419753086,0)" xlink:href="#K"/><use transform="matrix(0.06172839506172839,0,0,0.06172839506172839,69.87654320987654,0)" xlink:href="#K"/></g><path fill="#333" d="M127-220V0H93v-220H8v-28h204v28h-85" id="L"/><path fill="#333" d="M212-179c-10-28-35-45-73-45-59 0-87 40-87 99 0 60 29 101 89 101 43 0 62-24 78-52l27 14C228-24 195 4 139 4 59 4 22-46 18-125c-6-104 99-153 187-111 19 9 31 26 39 46" id="M"/><path fill="#333" d="M30-248c118-7 216 8 213 122C240-48 200 0 122 0H30v-248zM63-27c89 8 146-16 146-99s-60-101-146-95v194" id="N"/><path fill="#333" d="M84 4C-5 8 30-112 23-190h32v120c0 31 7 50 39 49 72-2 45-101 50-169h31l1 190h-30c-1-10 1-25-2-33-11 22-28 36-60 37" id="O"/><path fill="#333" d="M210-169c-67 3-38 105-44 169h-31v-121c0-29-5-50-35-48C34-165 62-65 56 0H25l-1-190h30c1 10-1 24 2 32 10-44 99-50 107 0 11-21 27-35 58-36 85-2 47 119 55 194h-31v-121c0-29-5-49-35-48" id="P"/><g id="i"><use transform="matrix(0.06172839506172839,0,0,0.06172839506172839,0,0)" xlink:href="#L"/><use transform="matrix(0.06172839506172839,0,0,0.06172839506172839,13.518518518518517,0)" xlink:href="#M"/><use transform="matrix(0.06172839506172839,0,0,0.06172839506172839,29.50617283950617,0)" xlink:href="#o"/><use transform="matrix(0.06172839506172839,0,0,0.06172839506172839,44.32098765432099,0)" xlink:href="#N"/><use transform="matrix(0.06172839506172839,0,0,0.06172839506172839,60.30864197530864,0)" xlink:href="#O"/><use transform="matrix(0.06172839506172839,0,0,0.06172839506172839,72.65432098765432,0)" xlink:href="#P"/><use transform="matrix(0.06172839506172839,0,0,0.06172839506172839,91.1111111111111,0)" xlink:href="#K"/></g><g id="j"><use transform="matrix(0.06172839506172839,0,0,0.06172839506172839,0,0)" xlink:href="#o"/><use transform="matrix(0.06172839506172839,0,0,0.06172839506172839,14.814814814814813,0)" xlink:href="#M"/><use transform="matrix(0.06172839506172839,0,0,0.06172839506172839,30.80246913580247,0)" xlink:href="#A"/><use transform="matrix(0.06172839506172839,0,0,0.06172839506172839,45.61728395061728,0)" xlink:href="#o"/></g><path fill="#333" d="M240-174c0 40-23 61-54 70L253 0h-59l-57-94H76V0H24v-248c93 4 217-23 216 74zM76-134c48-2 112 12 112-38 0-48-66-32-112-35v73" id="Q"/><path fill="#333" d="M24 0v-248h52V0H24" id="R"/><path fill="#333" d="M110-194c64 0 96 36 96 99 0 64-35 99-97 99-61 0-95-36-95-99 0-62 34-99 96-99zm-1 164c35 0 45-28 45-65 0-40-10-65-43-65-34 0-45 26-45 65 0 36 10 65 43 65" id="S"/><path fill="#333" d="M136-208V0H84v-208H4v-40h212v40h-80" id="T"/><path fill="#333" d="M24-248c93 1 206-16 204 79-1 75-69 88-152 82V0H24v-248zm52 121c47 0 100 7 100-41 0-47-54-39-100-39v80" id="U"/><g id="k"><use transform="matrix(0.049382716049382706,0,0,0.049382716049382706,0,0)" xlink:href="#Q"/><use transform="matrix(0.049382716049382706,0,0,0.049382716049382706,12.790123456790122,0)" xlink:href="#R"/><use transform="matrix(0.049382716049382706,0,0,0.049382716049382706,17.728395061728392,0)" xlink:href="#S"/><use transform="matrix(0.049382716049382706,0,0,0.049382716049382706,28.543209876543205,0)" xlink:href="#T"/><use transform="matrix(0.049382716049382706,0,0,0.049382716049382706,39.35802469135802,0)" xlink:href="#U"/><use transform="matrix(0.049382716049382706,0,0,0.049382716049382706,51.209876543209866,0)" xlink:href="#S"/><use transform="matrix(0.049382716049382706,0,0,0.049382716049382706,62.02469135802468,0)" xlink:href="#T"/></g><path fill="#333" d="M186 0v-106H76V0H24v-248h52v99h110v-99h50V0h-50" id="V"/><path fill="#333" d="M137-138c1-29-70-34-71-4 15 46 118 7 119 86 1 83-164 76-172 9l43-7c4 19 20 25 44 25 33 8 57-30 24-41C81-84 22-81 20-136c-2-80 154-74 161-7" id="W"/><path fill="#333" d="M115-3C79 11 28 4 28-45v-112H4v-33h27l15-45h31v45h36v33H77v99c-1 23 16 31 38 25v30" id="X"/><g id="l"><use transform="matrix(0.049382716049382706,0,0,0.049382716049382706,0,0)" xlink:href="#V"/><use transform="matrix(0.049382716049382706,0,0,0.049382716049382706,12.790123456790122,0)" xlink:href="#S"/><use transform="matrix(0.049382716049382706,0,0,0.049382716049382706,23.604938271604937,0)" xlink:href="#W"/><use transform="matrix(0.049382716049382706,0,0,0.049382716049382706,33.48148148148148,0)" xlink:href="#X"/></g><path fill="#333" d="M169-182c-1-43-94-46-97-3 18 66 151 10 154 114 3 95-165 93-204 36-6-8-10-19-12-30l50-8c3 46 112 56 116 5-17-69-150-10-154-114-4-87 153-88 188-35 5 8 8 18 10 28" id="Y"/><path fill="#333" d="M185-48c-13 30-37 53-82 52C43 2 14-33 14-96s30-98 90-98c62 0 83 45 84 108H66c0 31 8 55 39 56 18 0 30-7 34-22zm-45-69c5-46-57-63-70-21-2 6-4 13-4 21h74" id="Z"/><path fill="#333" d="M135-150c-39-12-60 13-60 57V0H25l-1-190h47c2 13-1 29 3 40 6-28 27-53 61-41v41" id="aa"/><path fill="#333" d="M128 0H69L1-190h53L99-40l48-150h52" id="ab"/><path fill="#333" d="M25-224v-37h50v37H25zM25 0v-190h50V0H25" id="ac"/><path fill="#333" d="M190-63c-7 42-38 67-86 67-59 0-84-38-90-98-12-110 154-137 174-36l-49 2c-2-19-15-32-35-32-30 0-35 28-38 64-6 74 65 87 74 30" id="ad"/><g id="m"><use transform="matrix(0.049382716049382706,0,0,0.049382716049382706,0,0)" xlink:href="#Y"/><use transform="matrix(0.049382716049382706,0,0,0.049382716049382706,11.85185185185185,0)" xlink:href="#Z"/><use transform="matrix(0.049382716049382706,0,0,0.049382716049382706,21.728395061728392,0)" xlink:href="#aa"/><use transform="matrix(0.049382716049382706,0,0,0.049382716049382706,28.64197530864197,0)" xlink:href="#ab"/><use transform="matrix(0.049382716049382706,0,0,0.049382716049382706,38.51851851851851,0)" xlink:href="#ac"/><use transform="matrix(0.049382716049382706,0,0,0.049382716049382706,43.456790123456784,0)" xlink:href="#ad"/><use transform="matrix(0.049382716049382706,0,0,0.049382716049382706,53.333333333333336,0)" xlink:href="#Z"/><use transform="matrix(0.049382716049382706,0,0,0.049382716049382706,63.20987654320987,0)" xlink:href="#W"/></g><path fill="#fff" d="M199 0l-22-63H83L61 0H9l90-248h61L250 0h-51zm-33-102l-36-108c-10 38-24 72-36 108h72" id="ae"/><path fill="#fff" d="M115-3C79 11 28 4 28-45v-112H4v-33h27l15-45h31v45h36v33H77v99c-1 23 16 31 38 25v30" id="af"/><path fill="#fff" d="M133-34C117-15 103 5 69 4 32 3 11-16 11-54c-1-60 55-63 116-61 1-26-3-47-28-47-18 1-26 9-28 27l-52-2c7-38 36-58 82-57s74 22 75 68l1 82c-1 14 12 18 25 15v27c-30 8-71 5-69-32zm-48 3c29 0 43-24 42-57-32 0-66-3-65 30 0 17 8 27 23 27" id="ag"/><path fill="#fff" d="M190-63c-7 42-38 67-86 67-59 0-84-38-90-98-12-110 154-137 174-36l-49 2c-2-19-15-32-35-32-30 0-35 28-38 64-6 74 65 87 74 30" id="ah"/><path fill="#fff" d="M147 0L96-86 75-71V0H25v-261h50v150l67-79h53l-66 74L201 0h-54" id="ai"/><path fill="#fff" d="M185-48c-13 30-37 53-82 52C43 2 14-33 14-96s30-98 90-98c62 0 83 45 84 108H66c0 31 8 55 39 56 18 0 30-7 34-22zm-45-69c5-46-57-63-70-21-2 6-4 13-4 21h74" id="aj"/><path fill="#fff" d="M135-150c-39-12-60 13-60 57V0H25l-1-190h47c2 13-1 29 3 40 6-28 27-53 61-41v41" id="ak"/><path fill="#fff" d="M137-138c1-29-70-34-71-4 15 46 118 7 119 86 1 83-164 76-172 9l43-7c4 19 20 25 44 25 33 8 57-30 24-41C81-84 22-81 20-136c-2-80 154-74 161-7" id="al"/><g id="n"><use transform="matrix(0.06172839506172839,0,0,0.06172839506172839,0,0)" xlink:href="#ae"/><use transform="matrix(0.06172839506172839,0,0,0.06172839506172839,15.987654320987653,0)" xlink:href="#af"/><use transform="matrix(0.06172839506172839,0,0,0.06172839506172839,23.333333333333332,0)" xlink:href="#af"/><use transform="matrix(0.06172839506172839,0,0,0.06172839506172839,30.679012345679013,0)" xlink:href="#ag"/><use transform="matrix(0.06172839506172839,0,0,0.06172839506172839,43.02469135802469,0)" xlink:href="#ah"/><use transform="matrix(0.06172839506172839,0,0,0.06172839506172839,55.37037037037037,0)" xlink:href="#ai"/><use transform="matrix(0.06172839506172839,0,0,0.06172839506172839,67.71604938271605,0)" xlink:href="#aj"/><use transform="matrix(0.06172839506172839,0,0,0.06172839506172839,80.06172839506173,0)" xlink:href="#ak"/><use transform="matrix(0.06172839506172839,0,0,0.06172839506172839,88.70370370370371,0)" xlink:href="#al"/></g></defs></g></svg>